<mxfile host="app.diagrams.net" modified="2024-06-13T06:45:44.272Z" agent="Mozilla/5.0 (X11; Ubuntu; Linux x86_64; rv:126.0) Gecko/20100101 Firefox/126.0" version="24.5.4" etag="Ibbz0S-RqpIpf9zzjGDV" type="github">
  <diagram name="Page-1" id="XgHH5iB16RqMey-UYk8Y">
    <mxGraphModel>
      <root>
        <mxCell id="0" />
        <mxCell id="1" parent="0" />
      </root>
    </mxGraphModel>
  </diagram>
</mxfile>
